Exact Audio Copy V0.99 prebeta 1 from 25. May 2007

EAC 抓取日志文件从27. 十月 2010, 0:28

关牧村 / 20世纪中华歌坛名人百集珍藏版

使用驱动器  ：BENQ    DVD-ROM 16X   Adapter: 0  ID: 1

读取模式     : 保护
使用精确流   : 是
废除音频缓冲 : 是
使用 C2 指针 : 否

读取偏移校正                   : 738
读取 Lead-In 和 Lead-Out       : 否
用静音填充抓取中丢失偏移的采样 : 是
去除首尾静音块                 : 否
已用接口                       : 已安装外部 ASPI 接口

所用输出格式 : 内部 WAV 函数
样本格式     : 44.100 Hz;16 Bit;立体声


被抓轨 CD 的 TOC

     音轨 |   开始   |   长度   | 起始扇区 | 结尾扇区 
    --------------------------------------------------
       1  |  0:00.00 |  2:53.12 |       0  |   12986  
       2  |  2:53.12 |  3:58.15 |   12987  |   30851  
       3  |  6:51.27 |  1:38.45 |   30852  |   38246  
       4  |  8:29.72 |  4:16.67 |   38247  |   57513  
       5  | 12:46.64 |  2:36.68 |   57514  |   69281  
       6  | 15:23.57 |  3:33.35 |   69282  |   85291  
       7  | 18:57.17 |  3:08.08 |   85292  |   99399  
       8  | 22:05.25 |  4:13.02 |   99400  |  118376  
       9  | 26:18.27 |  4:16.23 |  118377  |  137599  
      10  | 30:34.50 |  4:02.05 |  137600  |  155754  
      11  | 34:36.55 |  4:36.70 |  155755  |  176524  
      12  | 39:13.50 |  2:56.50 |  176525  |  189774  
      13  | 42:10.25 |  4:06.27 |  189775  |  208251  
      14  | 46:16.52 |  3:50.00 |  208252  |  225501  
      15  | 50:06.52 |  4:43.08 |  225502  |  246734  
      16  | 54:49.60 |  1:55.42 |  246735  |  255401  


范围状态及错误

已选择范围

     文件名 E:\文件夹\20世纪中华歌坛名人百集珍藏版-关牧村[lwg188原创]\关牧村 - 20世纪中华歌坛名人百集珍藏版.wav

     峰值电平 99.9 %
     范围质量 100.0 %
     复制 CRC 149C5B99
     复制成功

没有错误发生

状态报告结尾
